<?xml version="1.0" encoding="utf-8"?>
<!-- Generator: Adobe Illustrator 23.1.0, SVG Export Plug-In . SVG Version: 6.00 Build 0)  -->
<svg version="1.1" id="Слой_1" xmlns="http://www.w3.org/2000/svg" xmlns:xlink="http://www.w3.org/1999/xlink" x="0px" y="0px"
	 viewBox="0 0 72 72" style="enable-background:new 0 0 72 72;" xml:space="preserve">
<style type="text/css">
	.st0{fill-rule:evenodd;clip-rule:evenodd;fill:#878787;}
	.st1{fill-rule:evenodd;clip-rule:evenodd;fill:#C6C6C6;}
	.st2{fill-rule:evenodd;clip-rule:evenodd;fill:#EDEDED;}
	.st3{fill-rule:evenodd;clip-rule:evenodd;fill:#B2B2B2;}
	.st4{fill-rule:evenodd;clip-rule:evenodd;fill:#9D9D9C;}
	.st5{fill:#B2B2B2;}
	.st6{fill:#EC6608;}
</style>
<g>
	<path class="st0" d="M64.23,33.16c0-0.64-0.17-1.17-0.5-1.6c-0.34-0.42-0.84-0.64-1.5-0.64c-0.58,0-1.07,0.2-1.45,0.6
		c-0.39,0.4-0.58,0.92-0.58,1.58c0,0.66,0.19,1.18,0.56,1.57c0.37,0.39,0.85,0.59,1.42,0.59c0.41,0,0.77-0.1,1.1-0.29
		c0.32-0.19,0.56-0.45,0.72-0.78C64.15,33.88,64.23,33.53,64.23,33.16L64.23,33.16z M66,33.29c0,0.28-0.06,0.63-0.19,1.07
		c-0.13,0.44-0.35,0.84-0.67,1.21c-0.32,0.37-0.73,0.66-1.22,0.88c-0.49,0.22-1.08,0.33-1.78,0.33c-1.12,0-2.02-0.34-2.7-1.03
		c-0.69-0.68-1.03-1.58-1.03-2.68c0-1.11,0.37-2.01,1.1-2.68c0.74-0.67,1.64-1.01,2.7-1.01c0.58,0,1.11,0.1,1.61,0.29
		c0.49,0.19,0.91,0.49,1.26,0.89c0.35,0.4,0.6,0.86,0.76,1.39C65.95,32.28,66,32.73,66,33.29L66,33.29z"/>
	<path class="st0" d="M55.44,32.4c-0.01-0.5-0.17-0.91-0.48-1.21c-0.31-0.3-0.7-0.46-1.18-0.46c-0.47,0-0.87,0.15-1.2,0.45
		c-0.33,0.3-0.53,0.7-0.61,1.22H55.44L55.44,32.4z M57.21,33.64h-5.23c0.08,0.57,0.3,1.01,0.64,1.31c0.34,0.3,0.78,0.45,1.3,0.45
		c0.33,0,0.63-0.07,0.9-0.22c0.27-0.15,0.55-0.4,0.83-0.75l1.25,0.94c-0.39,0.48-0.83,0.83-1.33,1.06c-0.5,0.23-1.1,0.34-1.79,0.34
		c-1.11,0-1.99-0.35-2.65-1.06c-0.65-0.71-0.98-1.59-0.98-2.64c0-1.07,0.34-1.94,1.02-2.62c0.68-0.68,1.55-1.03,2.61-1.03
		c0.67,0,1.27,0.15,1.81,0.46c0.53,0.3,0.94,0.73,1.21,1.27c0.27,0.54,0.41,1.21,0.41,2.01C57.22,33.26,57.22,33.42,57.21,33.64
		L57.21,33.64z"/>
	<path class="st0" d="M43.94,36.57H42.2v-4.32c0-1.06-0.01-1.94-0.02-2.64h1.66v1.13c0.23-0.39,0.52-0.7,0.88-0.93
		c0.35-0.23,0.81-0.34,1.36-0.34c0.49,0,0.9,0.09,1.24,0.28c0.34,0.18,0.61,0.41,0.79,0.67c0.19,0.27,0.32,0.55,0.38,0.86
		c0.07,0.31,0.11,0.82,0.11,1.54v3.76h-1.74v-3.75c0-0.47-0.04-0.82-0.13-1.04c-0.09-0.23-0.23-0.42-0.44-0.55
		c-0.21-0.14-0.45-0.21-0.73-0.21c-0.35,0-0.66,0.09-0.93,0.28c-0.27,0.19-0.46,0.44-0.56,0.77c-0.08,0.24-0.12,0.69-0.12,1.32
		V36.57L43.94,36.57z"/>
	<path class="st1" d="M10.68,24.12l2.03,2.03l10.55-4.37l0-2.87c-0.18,0-0.36,0.03-0.53,0.1l-11.61,4.81
		C10.96,23.89,10.81,23.99,10.68,24.12L10.68,24.12z"/>
	<path class="st2" d="M5.47,36.7l2.87,0l4.37-10.56l-2.03-2.03c-0.13,0.13-0.23,0.28-0.3,0.45L5.58,36.18
		C5.51,36.35,5.47,36.53,5.47,36.7L5.47,36.7z"/>
	<path class="st1" d="M10.69,49.29l2.03-2.03L8.34,36.7l-2.87,0c0,0.18,0.03,0.36,0.1,0.53l4.81,11.61
		C10.46,49.01,10.56,49.16,10.69,49.29L10.69,49.29z"/>
	<path class="st3" d="M23.27,54.5l0-2.87l-10.56-4.37l-2.03,2.03c0.13,0.13,0.28,0.23,0.45,0.3l11.62,4.81
		C22.92,54.46,23.09,54.5,23.27,54.5L23.27,54.5z"/>
	<path class="st4" d="M35.86,49.28l-2.03-2.03l-10.55,4.37l0,2.87c0.18,0,0.36-0.03,0.53-0.1l11.61-4.81
		C35.58,49.51,35.73,49.41,35.86,49.28L35.86,49.28z"/>
	<path class="st0" d="M41.07,36.7l-2.87,0l-4.37,10.56l2.03,2.03c0.13-0.13,0.23-0.28,0.3-0.45l4.81-11.62
		C41.03,37.06,41.07,36.88,41.07,36.7L41.07,36.7z"/>
	<path class="st4" d="M35.85,24.11l-2.03,2.03L38.2,36.7l2.87,0c0-0.18-0.03-0.36-0.1-0.53l-4.81-11.61
		C36.08,24.39,35.98,24.24,35.85,24.11L35.85,24.11z"/>
	<path class="st3" d="M23.27,18.9l0,2.87l10.56,4.37l2.03-2.03c-0.13-0.13-0.28-0.23-0.45-0.3l-11.62-4.81
		C23.63,18.94,23.45,18.9,23.27,18.9L23.27,18.9z"/>
	<path class="st5" d="M23.49,24.18l5.26,3.04L34,30.25l0.22,0.13v0.25v6.07v6.07v0.25L34,43.15l-5.26,3.04l-5.26,3.04l-0.22,0.13
		l-0.22-0.13l-5.26-3.04l-5.26-3.04l-0.22-0.13v-0.25V36.7v-6.07v-0.25l0.22-0.13l5.26-3.04l5.26-3.04l0.22-0.13L23.49,24.18
		L23.49,24.18z M28.31,27.97l-5.04-2.91l-5.04,2.91l-5.04,2.91v5.82v5.82l5.04,2.91l5.04,2.91l5.04-2.91l5.04-2.91V36.7v-5.82
		L28.31,27.97L28.31,27.97z"/>
	<path class="st5" d="M10.75,36.48l3.04-5.26l3.04-5.26l0.13-0.22h0.25h6.07h6.07h0.25l0.13,0.22l3.04,5.26l3.04,5.26l0.13,0.22
		l-0.13,0.22l-3.04,5.26l-3.04,5.26l-0.13,0.22h-0.25h-6.07H17.2h-0.25l-0.13-0.22l-3.04-5.26l-3.04-5.26l-0.13-0.22L10.75,36.48
		L10.75,36.48z M14.54,31.66l-2.91,5.04l2.91,5.04l2.91,5.04h5.82h5.82L32,41.74l2.91-5.04L32,31.66l-2.91-5.04h-5.82h-5.82
		L14.54,31.66L14.54,31.66z"/>
	<path class="st6" d="M17.21,28.66h4.71c1.64,0,2.91,0.11,3.82,0.31c0.91,0.22,1.74,0.56,2.48,1.03c0.74,0.48,1.37,1.06,1.88,1.76
		c0.52,0.7,0.9,1.46,1.15,2.29c0.26,0.83,0.38,1.7,0.38,2.62c0,1.11-0.18,2.12-0.54,3.04c-0.36,0.91-0.83,1.7-1.42,2.37
		c-0.58,0.68-1.21,1.2-1.89,1.59c-0.46,0.26-0.99,0.47-1.6,0.63c-1.15,0.29-2.37,0.44-3.67,0.44h-5.31V28.66L17.21,28.66z
		 M20.1,42.16h1.91c1.46,0,2.6-0.17,3.44-0.52c1.04-0.43,1.82-1.08,2.35-1.94c0.53-0.87,0.8-1.89,0.8-3.06
		c0-1.11-0.26-2.09-0.76-2.92c-0.51-0.84-1.22-1.46-2.13-1.86c-0.91-0.4-2.13-0.61-3.66-0.61H20.1V42.16L20.1,42.16z"/>
</g>
</svg>
